<?xml version="1.0" encoding="UTF-8"?>
<svg id="Layer_1" data-name="Layer 1" xmlns="http://www.w3.org/2000/svg" viewBox="0 0 226.22 2278.93">
  <defs>
    <style>
      .cls-1, .cls-2, .cls-3, .cls-4, .cls-5, .cls-6 {
        stroke-width: 0px;
      }

      .cls-2 {
        fill: #b7b7b7;
      }

      .cls-3 {
        fill: #ad1d29;
      }

      .cls-4 {
        fill: #fff;
      }

      .cls-5 {
        fill: #cd2734;
      }

      .cls-6 {
        fill: #e8e8e8;
      }
    </style>
  </defs>
  <path class="cls-4" d="m20.13,883.69c0,.75.02,1.5,0,3.21,0,7.33.04,14.67-.05,22-.05,4.46,1.38,10.83-.93,12.89-2.69,2.4-8.76,1.43-13.33,1.16-4.66-.27-5.81,1.29-5.81,5.86.1,448.15.1,896.3.11,1344.46,0,1.78.15,3.55.24,5.44,9.59,1.64,3.6-6.65,7.42-9.67h27.93c.3-3.63.56-6.67.81-9.73,3.46-.22,6.37-.4,9.33-.58.22-3.5.4-6.41.56-9.08.9-.3,1.21-.49,1.52-.49,4.67-.05,9.34-.25,13.99-.03,3.35.16,4.67-1.14,4.16-4.34-.73-4.61,1.13-6.44,5.74-5.75,2.68.4,4.82-.28,4.24-3.64-.95-5.54,1.68-7.07,6.66-6.36,1.31.19,2.66.03,4,.03,5.92,0,9.11-2.85,9.58-8.55.02-.29.3-.57.63-1.16,2.72-.19,5.64-.38,8.8-.6.27-3.33.52-6.37.77-9.44,3.45-.21,6.36-.39,9.28-.57.14-1.4.39-2.24.28-3.03-.7-4.94.77-7.62,6.35-6.68,3.87.65,3.98-2.1,3.65-4.72-.52-4.14,1.06-5.96,5.24-5.24,4.26.73,5.04-1.5,4.86-5.16-.24-4.76-.06-9.54-.06-14.51,3.62-.25,6.53-.44,9.68-.66.22-3.26.42-6.17.64-9.32,3.34-.27,6.38-.52,9.43-.77.22-3.48.4-6.39.59-9.34,3.51-.22,6.42-.4,9.67-.6,0-5.7-.18-10.86.13-15.99.08-1.27,1.58-3.31,2.69-3.51,7.16-1.26,7.18-1.12,7.18-8.4,0-2.17.21-4.36-.05-6.49-.5-4.13,1.04-5.97,5.24-5.26,4.25.73,5.05-1.47,4.87-5.15-.24-4.76-.06-9.54-.06-14.51,3.62-.25,6.53-.45,10.03-.69v-29.26c3.63-.3,6.67-.56,9.97-.83v-30.51c0-5.58,2.79-8.65,8.38-9.22.44-.05.85-.44,1.37-.72.08-.99.24-1.97.24-2.96.02-13.83.04-27.67-.02-41.5-.01-2.75.05-5.3,3.81-4.63,5.78,1.03,6.3-2.03,6.3-6.78-.11-95.16-.08-190.33-.08-285.49,0-249.16,0-498.32.11-747.48,0-4.95-1.05-6.55-6.27-6.43-15.99.38-32,0-47.99.23-4.4.06-6.13-.88-5.96-5.71.37-10.49.08-20.99.1-32.24-.02-.75-.05-1.51,0-3.02.03-1.02.06-2.03.99-3.11h8.8V73.05c-1.16,0-2.11.01-3.06,0-4.49-.06-6.73-2.34-6.73-6.85v-22.78c-6.79-.63-9.79-3.42-9-8.37,1-.65,2.81-1.25,2.86-1.96.27-4.26.13-8.54.13-13.19h-10.14v-11h-10.01V.05c-4.36,0-8.35-.18-12.29.13-.93.07-1.72,1.8-3.45,2.86-2.04.06-4.08.12-7.04.03h-46.58c-.49,3.48.09,7.48-1.57,8.96-1.89,1.68-5.79,1.1-8.77,1.5-.26,5.74-3.52,9.08-9.78,10.01-.36,2.9.28,6.9-1.36,8.39-1.87,1.7-5.77,1.16-8.76,1.59-.43,5.9-3.84,9.22-10.25,9.97v20.3c0,6.01-2.94,9.13-8.83,9.35-.28.01-.54.29-1.17.64v799.61c0,1.83.1,3.66,0,6.29.02,1.08.05,2.16.02,3.99v.02Z"/>
  <path class="cls-6" d="m166.04,885.95c.02,10.5.31,21.01-.05,31.49-.17,4.83,1.56,5.78,5.96,5.71,16-.23,32,.15,47.99-.23,5.22-.11,6.27,1.49,6.27,6.43-.12,249.16-.11,498.32-.11,747.48,0,95.16-.03,190.33.08,285.49,0,4.75-.52,7.8-6.3,6.78-3.77-.67-3.83,1.88-3.81,4.63.06,13.83.03,27.67.02,41.5,0,.98-.15,1.96-.24,2.96-.52.28-.93.68-1.37.72-5.59.57-8.38,3.65-8.38,9.22v30.51c-3.3.28-6.34.53-9.97.83v29.26c-3.5.24-6.42.44-10.03.69,0,4.97-.18,9.75.06,14.51.19,3.68-.62,5.88-4.87,5.15-4.19-.72-5.74,1.12-5.24,5.26.26,2.14.05,4.33.05,6.49,0,7.28-.02,7.14-7.18,8.4-1.11.2-2.61,2.24-2.69,3.51-.31,5.13-.13,10.29-.13,15.99-3.25.2-6.16.38-9.67.6-.18,2.95-.37,5.86-.59,9.34-3.05.25-6.09.49-9.43.77-.21,3.15-.41,6.06-.64,9.32-3.14.21-6.06.41-9.68.66,0,4.97-.18,9.75.06,14.51.18,3.67-.59,5.89-4.86,5.16-4.18-.71-5.76,1.1-5.24,5.24.33,2.62.22,5.37-3.65,4.72-5.58-.94-7.05,1.74-6.35,6.68.11.79-.14,1.63-.28,3.03-2.92.18-5.83.36-9.28.57-.25,3.07-.5,6.11-.77,9.44-3.16.22-6.07.41-8.8.6-.33.6-.6.87-.63,1.16-.47,5.7-3.66,8.55-9.58,8.55-1.33,0-2.69.16-4-.03-4.97-.71-7.61.82-6.66,6.36.58,3.36-1.57,4.04-4.24,3.64-4.61-.69-6.47,1.15-5.74,5.75.5,3.19-.81,4.49-4.16,4.34-4.65-.22-9.33-.01-13.99.03-.31,0-.62.19-1.52.49-.17,2.67-.35,5.58-.56,9.08-2.96.18-5.87.36-9.33.58-.26,3.06-.51,6.09-.81,9.73H7.77c-3.82,3.02,2.17,11.3-7.42,9.67-.09-1.89-.24-3.67-.24-5.44,0-448.15,0-896.3-.11-1344.46,0-4.57,1.16-6.13,5.81-5.86,4.56.27,10.63,1.23,13.33-1.16,2.31-2.06.88-8.42.93-12.89.09-7.33.04-14.67.33-22.62.44-1.4.6-2.18,1.22-3.02,48.11-.02,95.76.02,143.4.36.33.98.67,1.65,1,2.32h.02Z"/>
  <path class="cls-5" d="m20.26,878.9c-.05-1.83-.15-3.66-.15-5.49V73.8c.62-.35.89-.63,1.17-.64,5.89-.22,8.83-3.34,8.83-9.35v-20.3c6.41-.75,9.83-4.07,10.25-9.97,2.99-.43,6.9.11,8.76-1.59,1.64-1.49.99-5.5,1.36-8.39,6.27-.93,9.53-4.27,9.78-10.01,2.98-.4,6.88.18,8.77-1.5,1.66-1.48,1.08-5.49,1.57-8.96,15.37,0,30.97,0,47.04.53.46,168.52.47,336.5.46,504.48,0,123.49-.02,246.98-.48,370.58-32.76.15-65.06.18-97.36.21m59.85-139.33V68.92h-10.11v-9.62h-23.94v9.97h-9.67v773.92h9.83v9.54h24.12v-19.88h9.77v-93.29h0Z"/>
  <path class="cls-3" d="m118.08,878.57c0-123.49.02-246.98.03-370.47V3.69c2.04-.52,4.08-.58,6.89-.43.99,3.3,1.21,6.39,1.41,9.24,3.3.56,7.15.1,8.76,1.79,1.62,1.69,1.01,5.52,1.37,8.35,5.65.69,9,3.8,10.05,9.33,3.42,1.1,6.54,2.1,9.66,3.1-.21,4.94,3.08,7.73,9.86,8.36v22.78c0,4.51,2.24,6.79,6.73,6.85.95.01,1.9,0,3.06,0v806.01c-2.94,0-5.87,0-9.72-.09-16.64-.2-32.37-.31-48.1-.42h0Z"/>
  <path class="cls-1" d="m117.62,878.68c16.18,0,31.91.1,48.1.33.43,1.14.4,2.15.08,3.62-.45.53-.61.61-.76.69-47.65-.04-95.3-.07-143.65-.17-.87-.11-1.03-.16-1.2-.2-.02-1.08-.05-2.16,0-3.64,32.37-.44,64.68-.47,97.44-.62h-.01Z"/>
  <path class="cls-1" d="m156.67,35.07c-3.55-1-6.67-2-10.1-3.1-1.05-5.53-4.4-8.64-10.05-9.33-.36-2.83.25-6.66-1.37-8.35-1.62-1.69-5.47-1.23-8.76-1.79-.2-2.85-.42-5.94-.97-9.29.51-1.22,1.31-2.95,2.24-3.02,3.95-.31,7.93-.13,12.29-.13v8.85h10.01v11h10.14c0,4.64.14,8.93-.13,13.19-.05.71-1.86,1.31-3.29,1.96h0Z"/>
  <path class="cls-2" d="m165.03,883.63c.16-.39.32-.47.73-.62.28.68.3,1.44.3,2.57-.36-.3-.7-.97-1.03-1.95Z"/>
  <path class="cls-2" d="m20.16,883.32c.2-.33.37-.28.77-.12.08.9-.08,1.68-.5,2.61-.27-.61-.29-1.36-.27-2.49Z"/>
  <path class="cls-1" d="m80.1,740.06v92.79h-9.77v19.88h-24.12v-9.54h-9.83V69.27h9.67v-9.97h23.94v9.62h10.11v671.14M40.1,211.56v627.65h10.16v9.56h16.01v-19.9h9.56V72.91h-9.89v-9.57h-16.01v9.9h-9.82v138.32h0Z"/>
  <path class="cls-4" d="m40.1,211.06V73.24h9.82v-9.9h16.01v9.57h9.89v755.96h-9.56v19.9h-16.01v-9.56h-10.16V211.06h.01Z"/>
</svg>