<?xml version="1.0" encoding="UTF-8"?>
<svg id="Layer_1" data-name="Layer 1" xmlns="http://www.w3.org/2000/svg" viewBox="0 0 236.14 2287.98">
  <defs>
    <style>
      .cls-1 {
        fill: #b0202c;
      }

      .cls-1, .cls-2, .cls-3, .cls-4, .cls-5, .cls-6, .cls-7 {
        stroke-width: 0px;
      }

      .cls-2 {
        fill: #ececec;
      }

      .cls-4 {
        fill: #cf2a37;
      }

      .cls-5 {
        fill: #c02532;
      }

      .cls-6 {
        fill: #fff;
      }

      .cls-7 {
        fill: #d02a37;
      }
    </style>
  </defs>
  <path class="cls-2" d="m146.02,929.91c0,154.14.02,308.29.03,462.43,0,6.99,0,7.18,6.82,7.56,3.32.18,3.19,2.08,3.18,4.34-.02,10.33.14,20.67-.09,30.99-.08,3.74,1.06,5.32,4.8,4.73,4.08-.64,5.86.93,5.32,5.18-.27,2.13-.05,4.33-.05,6.49,0,7.44.02,7.33,7.11,8.46,1.09.17,2.47,1.79,2.76,2.98.46,1.87.12,3.94.12,5.99.86.35,1.44.76,2.04.81,5.31.46,7.97,3.32,7.97,8.57v4c0,6.8.02,6.66,6.91,7.67,1.16.17,2.83,2.04,2.94,3.25.38,3.96.31,7.99.09,11.98-.18,3.31.7,5.23,4.38,4.61,4.71-.78,6.01,1.28,5.76,5.8-.36,6.65.05,13.33-.15,19.99-.1,3.29,1.05,4.74,4.29,4.2,5.15-.86,6.11,1.66,5.86,6.21-.36,6.31.1,12.67-.16,18.99-.15,3.63.87,5.47,4.71,4.81,4.6-.79,5.54,1.36,5.46,5.6-.26,13.16,0,26.33-.16,39.49-.04,3.49.62,5.58,4.61,4.91,4.45-.72,5.57,1.13,5.57,5.52-.11,154.98-.11,309.96,0,464.93,0,4.26-.9,6.39-5.47,5.58-4.5-.8-4.67,1.93-4.66,5.33.06,49.33-.02,98.65.14,147.98.01,4.85-.7,7.73-6.36,6.72-2.77-.49-3.87.86-3.77,3.69.16,4.33.26,8.68-.11,12.98-.1,1.17-1.96,2.19-3.01,3.27-.94-1.03-2.42-1.92-2.71-3.11-.46-1.87-.12-3.94-.12-5.82-.73-.41-1.14-.82-1.58-.87-5.62-.61-8.43-3.84-8.43-9.69v-563.42c0-4.71-2.29-7.07-6.88-7.07-4.17,0-8.34.16-12.5-.05-3.31-.17-5.23.71-4.61,4.38.79,4.71-1.3,6.37-5.8,5.68-3.27-.5-4.61.97-4.24,4.23.15,1.32.02,2.66.02,4v554.42c0,6.85,0,6.98-6.61,7.28-2.66.12-3.46,1.14-3.41,3.63.1,5.83.03,11.66.03,17.97-1.72.47-3.43.47-5.57.47-.43-6-.55-12-.38-18,.09-3.03-.96-4.52-4-3.97-5.45.99-6.15-1.72-6.14-6.44.11-155.33.09-310.66.09-465.99,0-6.93.01-7.13-6.86-7.53-3.82-.22-3.12-2.67-3.12-4.88-.03-19.17-.01-38.33-.01-57.5,0-11-.15-22,.08-33,.08-3.8-1.15-4.97-4.85-4.76-4.98.28-10,.23-14.99.01-3.28-.14-4.73,1.01-4.22,4.28.69,4.51-.99,6.58-5.69,5.79-4.26-.72-4.37,1.94-4.36,5.12.06,35.33.04,70.67.04,106v448.99c0,6.17-3.23,9.6-9.68,10.28-.11,2.14.09,4.46-.45,6.6-.29,1.16-1.84,2.76-2.84,2.77-1,0-2.61-1.57-2.88-2.71-.47-2.01-.13-4.22-.13-6-.85-.51-1.11-.8-1.4-.82-5.74-.52-8.61-3.7-8.61-9.55v-543.49c0-6.59-.02-6.45-6.75-7.32-1.19-.16-2.99-1.94-3.09-3.1-.37-4.3-.27-8.66-.12-12.99.1-2.76-.85-3.9-3.72-3.82-5.5.15-11,.19-16.5-.01-3.24-.12-3.99,1.33-3.86,4.19.16,3.66-.16,7.35.09,10.99.25,3.57-.74,5.53-4.65,4.86-4.53-.77-5.83,1.23-5.49,5.56.36,4.64.28,9.34.02,13.99-.2,3.54,1.12,4.99,4.56,4.45,4.38-.7,5.6,1.01,5.6,5.47-.12,175-.11,350,0,524.99,0,4.29-.95,6.34-5.49,5.56-3.9-.67-4.86,1.27-4.71,4.85.07,1.66-.64,4.29-1.79,4.85-2.04.99-4.24.33-4.13-2.96.14-4.16-.14-8.34.08-12.5.17-3.25-.96-4.79-4.25-4.24-5.09.85-5.91-1.6-5.9-6.17.14-69.17.05-138.33.2-207.5,0-4.84-.88-7.32-6.21-6.37-3.12.55-4.23-1.09-3.9-4.04.09-.82,0-1.67,0-2.5,0-114.33.02-228.66-.09-343,0-4.66.58-7.47,6.1-6.47,4.09.74,4.02-2.04,4.01-4.93-.05-23.17.08-46.33-.13-69.5-.04-4.33,1-6.31,5.52-5.55,3.92.67,4.73-1.31,4.65-4.86-.2-10,.06-20-.14-30-.07-3.7.67-5.86,4.89-5.14s5.37-1.18,5.26-5.28c-.27-9.99.07-20-.17-30-.09-3.75,1.08-5.31,4.81-4.72,4.09.64,5.85-.95,5.32-5.19-.27-2.13-.05-4.33-.05-6.49,0-7.42.02-7.31,7.12-8.45,1.09-.17,2.65-1.87,2.74-2.97.33-3.97.41-8.01.06-11.98-.36-4.12,1.29-5.39,5.13-4.96,1.42.16,2.9-.17,4.63-.3.22-3.2.42-6.12.6-8.68.47-.43.58-.62.71-.64,2.89-.44,7.17.11,8.32-1.53,1.52-2.17.59-6.06.69-9.21.04-1.33.16-2.69-.02-4-.6-4.24.79-6.4,5.39-5.61,3.85.66,4.84-1.18,4.71-4.81-.25-6.99.07-14-.13-21-.1-3.33,1.12-4.68,4.33-4.17,4.6.72,5.95-1.12,5.84-5.74-.31-13.16,0-26.33-.19-39.5-.05-3.68.96-5.42,4.75-4.77,4.66.8,5.41-1.48,5.41-5.64-.1-144.5-.09-288.99.39-433.88,15.49-.44,30.5-.5,45.5-.56l-.03.02Z"/>
  <path class="cls-1" d="m138.05,10.15h7.99c0,4.68.27,9.31-.08,13.9-.33,4.45.87,6.75,5.74,5.97,1.26-.2,2.58-.03,4.34-.03v31.73c0,7.33.33,14.69-.11,21.99-.31,5.13,1.39,7.11,6.43,6.3.97-.16,1.99-.02,3.33-.02v836c-6.07,0-12.33,0-19.29-.33-3.26-.5-5.82-.67-8.37-1.3,0-305.04.01-609.63.02-914.21h0Z"/>
  <path class="cls-7" d="m99.99,926.08h-19.71c-.1-1.53-.23-2.64-.23-3.75,0-274.14,0-548.28.49-822.88,2.1-.46,3.72-.46,5.4,0,.08,2.63.1,4.8.1,6.96v783.79h10.18v9.43h13.42V66.29h-13.74v10.1c-3.35-.48-6.08-.88-8.83-1.72.32-5.13.65-9.82.98-14.51.67-1.69,1.88-3.38,1.91-5.09.17-11.44.09-22.89.09-34.58,3.15-.41,7.03.17,8.9-1.5,1.66-1.48,1.1-5.46,1.56-8.57,2.76-.38,6.66.17,8.53-1.52,1.64-1.48,1.02-5.48,1.46-8.9,5.45,0,11.04,0,17.09.53.46,306.44.46,612.35.5,918.26,0,2.06.62,4.13.66,6.49-9.77.47-19.26.63-28.75.79h0Z"/>
  <path class="cls-5" d="m129.03,924.98c-.33-2.06-.95-4.13-.95-6.19-.04-305.91-.04-611.82-.04-918.19,2.44-.46,4.88-.46,7.32-.45.65,3.21,1.3,6.41,2.32,9.81.36,304.77.36,609.36-.1,914.47-3.15.53-5.86.54-8.56.55h0Z"/>
  <path class="cls-4" d="m87.6,60.08c.12,4.76-.21,9.45-.72,14.95-.45,8.53-.73,16.24-1,23.95h-5.26c-.4-12.83-.4-25.66-.4-38.98,2.44,0,4.69,0,7.39.07h-.01Z"/>
  <path class="cls-3" d="m128.75,925.28c2.99-.32,5.69-.33,8.84-.4,3,.11,5.56.28,8.36.79.2,1.38.15,2.42.08,3.86-15.02.45-30.03.5-45.5.48-.47-1.11-.48-2.13-.52-3.54,9.47-.54,18.96-.71,28.73-1.17v-.02Z"/>
  <path class="cls-3" d="m85.94,99.44c.21-8.18.48-15.89.94-23.97,2.93.03,5.66.42,9.01.9v-10.1h13.74v833.34h-13.42v-9.43h-10.18V106.39c0-2.17-.02-4.33-.1-6.96m4.1,245.04v541.68h10.18v9.87c2.14-.09,3.87-.17,5.55-.24V70.26h-5.89v9.9h-9.84v264.32h0Z"/>
  <path class="cls-6" d="m90.04,343.98V80.16h9.84v-9.9h5.89v825.52c-1.68.07-3.42.15-5.55.24v-9.87h-10.18V343.97h0Z"/>
</svg>